<?xml version="1.0" encoding="utf-8"?>
<!-- Generator: Adobe Illustrator 23.0.2, SVG Export Plug-In . SVG Version: 6.00 Build 0)  -->
<svg version="1.1" id="Layer_1" xmlns="http://www.w3.org/2000/svg" xmlns:xlink="http://www.w3.org/1999/xlink" x="0px" y="0px"
	 viewBox="0 0 1024 1024" style="enable-background:new 0 0 1024 1024;" xml:space="preserve">
<style type="text/css">
	.st0{fill:url(#SVGID_1_);}
	.st1{fill:#FFFFFF;}
</style>
<g>
	<linearGradient id="SVGID_1_" gradientUnits="userSpaceOnUse" x1="511.7862" y1="1070.5023" x2="511.7862" y2="18.7447">
		<stop  offset="0" style="stop-color:#0072BC"/>
		<stop  offset="1" style="stop-color:#00AEEF"/>
	</linearGradient>
	<rect x="-0.21" y="0.72" class="st0" width="1024" height="1024"/>
	<g>
		<path class="st1" d="M725.13,250.79c0.24,0.36,0.48,0.71,0.7,1.08c-12.01-3.83-24.74-6.05-37.92-6.45
			c-0.29-0.01-0.6-0.01-0.9-0.01c-1.08-0.03-2.14-0.04-3.22-0.04c-1.08,0-2.14,0.01-3.22,0.04c-0.29,0-0.6,0-0.9,0.01
			c-1.16,0.03-2.32,0.07-3.48,0.14c-72.94,3.96-130.85,64.33-130.85,138.25c0,70.84,53.21,129.25,121.84,137.45
			c-20.43,6.42-40.16,14.43-59.04,23.88c-18.56,9.27-36.3,19.94-53.1,31.86c-1.44-44.48-25.17-83.33-60.38-105.75
			c-8.38-5.33-17.4-9.73-26.92-13.05c-11.94,13.3-26.51,24.21-42.9,31.88c12.57-9.75,23.37-21.68,31.8-35.21
			c12.8-20.53,20.18-44.76,20.18-70.72c0-2.22-0.06-4.45-0.17-6.66c-0.04-0.89-0.1-1.79-0.15-2.68c-0.17-2.39-0.39-4.77-0.69-7.12
			c-0.11-0.94-0.24-1.85-0.38-2.77c-0.06-0.48-0.13-0.95-0.21-1.43c-0.13-0.89-0.28-1.79-0.43-2.67c-0.35-1.99-0.74-3.94-1.17-5.89
			c-0.15-0.74-0.34-1.48-0.52-2.22c-0.57-2.42-1.22-4.81-1.93-7.16c-0.2-0.64-0.39-1.27-0.6-1.9c-0.13-0.46-0.28-0.92-0.43-1.37
			c-0.15-0.49-0.32-0.98-0.49-1.45c-0.2-0.59-0.41-1.17-0.62-1.76c-0.31-0.88-0.63-1.76-0.96-2.63c-0.21-0.55-0.42-1.1-0.64-1.64
			c-0.21-0.56-0.43-1.1-0.67-1.65c-0.34-0.85-0.7-1.69-1.06-2.53c-0.28-0.64-0.56-1.27-0.87-1.92c-0.31-0.7-0.63-1.4-0.98-2.1
			c-0.35-0.76-0.71-1.51-1.09-2.25c-0.1-0.21-0.2-0.42-0.31-0.62c-0.42-0.83-0.84-1.65-1.29-2.48c-0.41-0.77-0.82-1.54-1.24-2.29
			c-0.28-0.49-0.55-0.98-0.83-1.45c-0.2-0.32-0.38-0.66-0.57-0.98c-0.42-0.73-0.85-1.44-1.29-2.15c-0.35-0.57-0.7-1.13-1.06-1.69
			c-0.46-0.76-0.94-1.5-1.43-2.22c-0.05-0.07-0.09-0.14-0.13-0.2c-0.36-0.53-0.94-1.39-1.3-1.91c-0.37-0.54-0.74-1.09-1.13-1.62
			c-0.17-0.25-0.35-0.5-0.55-0.76c-0.34-0.49-0.7-0.98-1.06-1.45c-0.57-0.78-1.16-1.55-1.76-2.32c-0.42-0.56-0.85-1.1-1.3-1.65
			c-0.18-0.25-0.39-0.49-0.59-0.74c-0.5-0.62-1.01-1.23-1.52-1.83c-0.15-0.2-0.32-0.39-0.48-0.57c-0.42-0.5-0.85-0.99-1.29-1.48
			c-1.69-1.93-3.44-3.82-5.24-5.65c-0.5-0.52-1.02-1.03-1.54-1.54c-0.14-0.14-0.28-0.29-0.43-0.43c-0.49-0.48-0.98-0.95-1.48-1.41
			c-0.48-0.46-0.95-0.91-1.44-1.34c-0.63-0.59-1.26-1.15-1.9-1.71c-0.48-0.43-0.95-0.85-1.44-1.27c-0.59-0.5-1.19-1.02-1.8-1.52
			c-0.64-0.53-1.29-1.05-1.93-1.57c-2.53-2.03-5.13-3.96-7.82-5.79c-0.74-0.52-1.48-1.02-2.24-1.51c-0.87-0.57-1.75-1.13-2.63-1.68
			c-0.88-0.56-1.76-1.09-2.66-1.62c-1.79-1.06-3.61-2.08-5.45-3.06c-0.91-0.49-1.85-0.96-2.77-1.43c-1.8-0.91-3.62-1.76-5.45-2.59
			c-2.94-1.31-5.94-2.52-8.99-3.62c-1.99-0.71-4-1.38-6.01-2.01c-0.03,0-0.06-0.01-0.07-0.03c-2.99-0.91-6.03-1.73-9.12-2.45
			c-1.06-0.24-2.13-0.48-3.2-0.7c-2.07-0.42-4.15-0.8-6.25-1.13c-0.04,0-0.08,0-0.14-0.01c-2.13-0.34-4.28-0.62-6.43-0.84
			c-1.05-0.11-2.11-0.21-3.17-0.29c-0.04,0-0.07-0.01-0.11-0.01c-0.53-0.04-1.08-0.08-1.62-0.13c-0.55-0.04-1.09-0.07-1.64-0.1
			c-0.56-0.03-1.12-0.06-1.68-0.1c-0.8-0.03-1.59-0.07-2.41-0.08c-1.2-0.03-2.42-0.04-3.64-0.04c-1.22,0-2.43,0.01-3.64,0.04
			c-18.95,0.52-36.92,4.95-53.11,12.54c2.06-1.59,4.15-3.12,6.31-4.59c-32.36,10.53-60.26,30.96-80.13,57.71
			c-19.48,26.21-31.24,58.48-31.97,93.46c-0.01,1.13-0.03,2.27-0.03,3.4c0,1.31,0.01,2.63,0.04,3.93
			c0.99,76.13,30.67,145.35,78.74,197.31l20.78,20.39l130.95,128.53l51.64,50.69c26.65,26.15,69.27,26.34,96.14,0.42l164.68-158.82
			l41.15-39.69c27.86-32.08,49.48-69.74,62.94-111.07c10.24-31.39,15.76-64.91,15.76-99.73
			C843.21,331.03,793.13,268.98,725.13,250.79z M768.27,467.4c-21.54,21.77-51.43,35.27-84.48,35.27
			c-65.64,0-118.86-53.22-118.86-118.86s53.22-118.86,118.86-118.86c21.16,0,41.03,5.54,58.23,15.23v0.01
			c36.19,20.36,60.63,59.14,60.63,103.62C802.65,416.4,789.52,445.94,768.27,467.4z"/>
		<circle class="st1" cx="683.79" cy="383.81" r="50.34"/>
	</g>
</g>
</svg>
